<svg width="40" height="39" viewBox="0 0 40 39" fill="none" xmlns="http://www.w3.org/2000/svg">
<path d="M25.0707 10.4293C25.0317 10.3902 24.9683 10.3902 24.9293 10.4293C24.8902 10.4683 24.8902 10.5317 24.9293 10.5707L25.0707 10.4293ZM24.5 31.4C24.4448 31.4 24.4 31.4448 24.4 31.5C24.4 31.5552 24.4448 31.6 24.5 31.6V31.4ZM26.6 22.3787V18.5H26.4V22.3787H26.6ZM24.5 31.6H26.5845V31.4H24.5V31.6ZM26.6 18.5V14.1213H26.4V18.5H26.6ZM26.6 14.1213C26.6 12.7365 26.0499 11.4085 25.0707 10.4293L24.9293 10.5707C25.871 11.5124 26.4 12.7896 26.4 14.1213H26.6ZM26.4 22.3787C26.4 23.7104 25.871 24.9876 24.9293 25.9293L25.0707 26.0707C26.0499 25.0915 26.6 23.7635 26.6 22.3787H26.4ZM26.5845 31.6C27.505 31.6 27.8407 30.3878 27.0514 29.9143L26.9486 30.0857C27.5639 30.455 27.3021 31.4 26.5845 31.4V31.6Z" fill="black"/>
<path d="M21.8244 36.6532L21.9261 36.7192C24.1917 38.192 27.2383 37.1513 28.1296 34.6002L28.2417 34.2793C28.731 32.8788 30.0523 31.9408 31.5358 31.9408C33.9047 31.9408 35.8251 30.0204 35.8251 27.6515V26.0079C35.8251 24.8573 36.2296 23.7433 36.9678 22.8606L37.6509 22.0438C39.2657 20.113 39.0379 17.2449 37.1386 15.5933C36.3042 14.8677 35.8251 13.8162 35.8251 12.7105V10.7138C35.8251 8.26338 33.8387 6.27692 31.3882 6.27692C29.9556 6.27692 28.6564 5.4358 28.07 4.12862L27.948 3.8568C26.8973 1.51456 23.9886 0.678284 21.8371 2.06483C20.7504 2.76514 19.3434 2.77726 18.2512 2.09045C16.0457 0.70359 13.1158 1.68453 12.1995 4.12549C11.7137 5.41967 10.4762 6.27692 9.09389 6.27692H8.87534C6.42724 6.27692 4.44265 8.2615 4.44265 10.7096V12.672C4.44265 13.794 3.94017 14.8571 3.07317 15.5693C1.08071 17.2061 0.845405 20.17 2.55464 22.1007L3.24743 22.8832C4.01751 23.7531 4.44265 24.8746 4.44265 26.0364V27.5695C4.44265 29.9837 6.39974 31.9408 8.81393 31.9408H8.8889C10.3781 31.9408 11.701 32.8919 12.1753 34.3035L12.2942 34.6572C13.1334 37.1548 16.1227 38.1641 18.3041 36.6865C19.3641 35.9686 20.751 35.9554 21.8244 36.6532Z" stroke="#FF8900" stroke-width="0.8"/>
<path d="M23.3279 26.8689L26.3633 30.2837C26.61 30.5612 26.4129 31 26.0416 31H23.9606C23.6683 31 23.3906 30.8721 23.2006 30.6499L20.5333 27.5307C20.1949 27.1349 19.7002 26.907 19.1794 26.907H17.0605C14.8346 26.907 13.0661 25.0364 13.1909 22.814V13.5315C13.1909 11.0288 15.2198 9 17.7225 9H20.6983C23.2762 9 25.3659 11.0897 25.3659 13.6675V22.814C25.3659 24.1752 24.6693 25.4417 23.5196 26.1705L23.4168 26.2357C23.1983 26.3743 23.156 26.6755 23.3279 26.8689Z" fill="#FF0000" stroke="black" stroke-width="0.5"/>
<path d="M18.4611 24H18.9611H19.9611C21.0656 24 21.9611 23.1046 21.9611 22V18V14C21.9611 12.8954 21.0656 12 19.9611 12H18.9611H18.4611C17.3565 12 16.4611 12.8954 16.4611 14V22C16.4611 23.1046 17.3565 24 18.4611 24Z" fill="white" stroke="black" stroke-width="0.5"/>
<path d="M21 13.5V13.5C21 13.2239 20.7761 13 20.5 13H18.4611V13C17.9288 13 17.4958 13.4288 17.4906 13.961L17.4611 17V20.5V22V22C17.4611 22.6129 17.8073 23.1731 18.3555 23.4472L18.4611 23.5" stroke="black" stroke-width="0.2" stroke-linecap="round"/>
</svg>
